<mxfile host="app.diagrams.net" modified="2024-10-11T16:36:57.452Z" agent="Mozilla/5.0 (Windows NT 10.0; Win64; x64) AppleWebKit/537.36 (KHTML, like Gecko) Chrome/129.0.0.0 Safari/537.36" etag="Hy0uH1cWZXC8eNGuC3La" version="24.6.4" type="device">
  <diagram name="Strona-1" id="GMF9S2X70b2813a8WshL">
    <mxGraphModel dx="1235" dy="655" grid="1" gridSize="10" guides="1" tooltips="1" connect="1" arrows="1" fold="1" page="1" pageScale="1" pageWidth="827" pageHeight="1169" math="0" shadow="0">
      <root>
        <mxCell id="0" />
        <mxCell id="1" parent="0" />
        <mxCell id="ghdzeEdLE1fpqGCB--NO-12" style="edgeStyle=orthogonalEdgeStyle;rounded=0;orthogonalLoop=1;jettySize=auto;html=1;exitX=0.5;exitY=0;exitDx=0;exitDy=0;entryX=1;entryY=0.5;entryDx=0;entryDy=0;" edge="1" parent="1" source="ghdzeEdLE1fpqGCB--NO-1" target="ghdzeEdLE1fpqGCB--NO-10">
          <mxGeometry relative="1" as="geometry" />
        </mxCell>
        <mxCell id="ghdzeEdLE1fpqGCB--NO-16" style="edgeStyle=orthogonalEdgeStyle;rounded=0;orthogonalLoop=1;jettySize=auto;html=1;entryX=0.5;entryY=0;entryDx=0;entryDy=0;" edge="1" parent="1" source="ghdzeEdLE1fpqGCB--NO-1" target="ghdzeEdLE1fpqGCB--NO-13">
          <mxGeometry relative="1" as="geometry" />
        </mxCell>
        <mxCell id="ghdzeEdLE1fpqGCB--NO-17" style="edgeStyle=orthogonalEdgeStyle;rounded=0;orthogonalLoop=1;jettySize=auto;html=1;" edge="1" parent="1" source="ghdzeEdLE1fpqGCB--NO-1">
          <mxGeometry relative="1" as="geometry">
            <mxPoint x="610" y="360" as="targetPoint" />
          </mxGeometry>
        </mxCell>
        <mxCell id="ghdzeEdLE1fpqGCB--NO-18" style="edgeStyle=orthogonalEdgeStyle;rounded=0;orthogonalLoop=1;jettySize=auto;html=1;exitX=0.5;exitY=1;exitDx=0;exitDy=0;entryX=0.5;entryY=0;entryDx=0;entryDy=0;" edge="1" parent="1" source="ghdzeEdLE1fpqGCB--NO-1" target="ghdzeEdLE1fpqGCB--NO-15">
          <mxGeometry relative="1" as="geometry">
            <Array as="points">
              <mxPoint x="530" y="329" />
              <mxPoint x="560" y="329" />
            </Array>
          </mxGeometry>
        </mxCell>
        <mxCell id="ghdzeEdLE1fpqGCB--NO-1" value="Backend" style="rounded=1;whiteSpace=wrap;html=1;fontStyle=1;fillColor=#f5f5f5;fontColor=#333333;strokeColor=#666666;" vertex="1" parent="1">
          <mxGeometry x="450" y="232.5" width="160" height="65" as="geometry" />
        </mxCell>
        <mxCell id="ghdzeEdLE1fpqGCB--NO-7" style="edgeStyle=orthogonalEdgeStyle;rounded=0;orthogonalLoop=1;jettySize=auto;html=1;entryX=0;entryY=0.5;entryDx=0;entryDy=0;" edge="1" parent="1" source="ghdzeEdLE1fpqGCB--NO-2" target="ghdzeEdLE1fpqGCB--NO-1">
          <mxGeometry relative="1" as="geometry" />
        </mxCell>
        <mxCell id="ghdzeEdLE1fpqGCB--NO-11" style="edgeStyle=orthogonalEdgeStyle;rounded=0;orthogonalLoop=1;jettySize=auto;html=1;entryX=0;entryY=0.5;entryDx=0;entryDy=0;" edge="1" parent="1" source="ghdzeEdLE1fpqGCB--NO-2" target="ghdzeEdLE1fpqGCB--NO-10">
          <mxGeometry relative="1" as="geometry" />
        </mxCell>
        <mxCell id="ghdzeEdLE1fpqGCB--NO-2" value="Frontend" style="rounded=1;whiteSpace=wrap;html=1;fontStyle=1;fillColor=#f5f5f5;fontColor=#333333;strokeColor=#666666;" vertex="1" parent="1">
          <mxGeometry x="210" y="230" width="160" height="70" as="geometry" />
        </mxCell>
        <mxCell id="ghdzeEdLE1fpqGCB--NO-6" value="" style="edgeStyle=orthogonalEdgeStyle;rounded=0;orthogonalLoop=1;jettySize=auto;html=1;" edge="1" parent="1" source="ghdzeEdLE1fpqGCB--NO-3" target="ghdzeEdLE1fpqGCB--NO-2">
          <mxGeometry relative="1" as="geometry" />
        </mxCell>
        <mxCell id="ghdzeEdLE1fpqGCB--NO-3" value="User" style="shape=umlActor;verticalLabelPosition=bottom;verticalAlign=top;html=1;outlineConnect=0;" vertex="1" parent="1">
          <mxGeometry x="275" y="390" width="30" height="60" as="geometry" />
        </mxCell>
        <mxCell id="ghdzeEdLE1fpqGCB--NO-8" value="Database&lt;br&gt;(MongoDB)" style="shape=cylinder3;whiteSpace=wrap;html=1;boundedLbl=1;backgroundOutline=1;size=15;fillColor=#dae8fc;strokeColor=#6c8ebf;" vertex="1" parent="1">
          <mxGeometry x="620" y="120" width="80" height="80" as="geometry" />
        </mxCell>
        <mxCell id="ghdzeEdLE1fpqGCB--NO-9" style="edgeStyle=orthogonalEdgeStyle;rounded=0;orthogonalLoop=1;jettySize=auto;html=1;entryX=0.5;entryY=1;entryDx=0;entryDy=0;entryPerimeter=0;" edge="1" parent="1" source="ghdzeEdLE1fpqGCB--NO-1" target="ghdzeEdLE1fpqGCB--NO-8">
          <mxGeometry relative="1" as="geometry" />
        </mxCell>
        <mxCell id="ghdzeEdLE1fpqGCB--NO-10" value="Authentication server&lt;br&gt;(AWS Cognito)" style="rounded=1;whiteSpace=wrap;html=1;fillColor=#dae8fc;strokeColor=#6c8ebf;" vertex="1" parent="1">
          <mxGeometry x="340" y="120" width="120" height="60" as="geometry" />
        </mxCell>
        <mxCell id="ghdzeEdLE1fpqGCB--NO-13" value="File storage&lt;br&gt;(AWS S3)" style="rounded=1;whiteSpace=wrap;html=1;fillColor=#dae8fc;strokeColor=#6c8ebf;" vertex="1" parent="1">
          <mxGeometry x="430" y="360" width="120" height="60" as="geometry" />
        </mxCell>
        <mxCell id="ghdzeEdLE1fpqGCB--NO-14" value="Queue service&lt;br&gt;(AWS SQS)" style="rounded=1;whiteSpace=wrap;html=1;fillColor=#dae8fc;strokeColor=#6c8ebf;" vertex="1" parent="1">
          <mxGeometry x="580" y="360" width="120" height="60" as="geometry" />
        </mxCell>
        <mxCell id="ghdzeEdLE1fpqGCB--NO-15" value="Email service&lt;br&gt;(AWS SES)" style="rounded=1;whiteSpace=wrap;html=1;fillColor=#dae8fc;strokeColor=#6c8ebf;" vertex="1" parent="1">
          <mxGeometry x="500" y="450" width="120" height="60" as="geometry" />
        </mxCell>
      </root>
    </mxGraphModel>
  </diagram>
</mxfile>
